<svg id="eg04olu7tjdh1" xmlns="http://www.w3.org/2000/svg" xmlns:xlink="http://www.w3.org/1999/xlink" viewBox="0 0 594 686" shape-rendering="geometricPrecision" text-rendering="geometricPrecision"><style><![CDATA[#eg04olu7tjdh9_to {animation: eg04olu7tjdh9_to__to 10250ms linear infinite normal forwards}@keyframes eg04olu7tjdh9_to__to { 0% {transform: translate(255.290998px,343px)} 6.829268% {transform: translate(255.290998px,343px)} 9.756098% {transform: translate(335.409208px,343px)} 100% {transform: translate(335.409208px,343px)} }#eg04olu7tjdh9_ts {animation: eg04olu7tjdh9_ts__ts 10250ms linear infinite normal forwards}@keyframes eg04olu7tjdh9_ts__ts { 0% {transform: scale(-1,1)} 39.024390% {transform: scale(-1,1)} 41.951220% {transform: scale(1.001952,1)} 100% {transform: scale(1.001952,1)} }#eg04olu7tjdh9 {animation: eg04olu7tjdh9_f_o 10250ms linear infinite normal forwards}@keyframes eg04olu7tjdh9_f_o { 0% {fill-opacity: 0} 4.878049% {fill-opacity: 1} 92.682927% {fill-opacity: 1} 97.560976% {fill-opacity: 0} 100% {fill-opacity: 0} }#eg04olu7tjdh11 {animation: eg04olu7tjdh11_f_o 10250ms linear infinite normal forwards}@keyframes eg04olu7tjdh11_f_o { 0% {fill-opacity: 0} 4.878049% {fill-opacity: 1} 92.682927% {fill-opacity: 1} 97.560976% {fill-opacity: 0} 100% {fill-opacity: 0} }]]></style><defs><linearGradient id="eg04olu7tjdh3-fill" x1="63.590000" y1="342.980000" x2="530.350000" y2="342.980000" spreadMethod="pad" gradientUnits="userSpaceOnUse"><stop id="eg04olu7tjdh3-fill-0" offset="0%" stop-color="rgb(5,5,5)"/><stop id="eg04olu7tjdh3-fill-1" offset="0%" stop-color="rgb(14,14,14)"/><stop id="eg04olu7tjdh3-fill-2" offset="11.380000%" stop-color="rgb(38,38,38)"/><stop id="eg04olu7tjdh3-fill-3" offset="20.290000%" stop-color="rgb(78,78,78)"/><stop id="eg04olu7tjdh3-fill-4" offset="30.710000%" stop-color="rgb(133,133,133)"/><stop id="eg04olu7tjdh3-fill-5" offset="42.250000%" stop-color="rgb(203,203,203)"/><stop id="eg04olu7tjdh3-fill-6" offset="50.170000%" stop-color="rgb(255,255,255)"/><stop id="eg04olu7tjdh3-fill-7" offset="58.650000%" stop-color="rgb(198,198,198)"/><stop id="eg04olu7tjdh3-fill-8" offset="69.950000%" stop-color="rgb(128,128,128)"/><stop id="eg04olu7tjdh3-fill-9" offset="80.140000%" stop-color="rgb(73,73,73)"/><stop id="eg04olu7tjdh3-fill-10" offset="88.870000%" stop-color="rgb(33,33,33)"/><stop id="eg04olu7tjdh3-fill-11" offset="95.770000%" stop-color="rgb(9,9,9)"/><stop id="eg04olu7tjdh3-fill-12" offset="100%" stop-color="rgb(0,0,0)"/></linearGradient></defs><g id="eg04olu7tjdh2"><path id="eg04olu7tjdh3" d="M530.300000,477.800000C527.200000,483.100000,449.400000,612.500000,296.900000,612.500000C144.400000,612.500000,66.600000,483.100000,63.500000,477.800000C63.500000,388,63.500000,298.100000,63.500000,208.300000C111.700000,125,200.800000,73.500000,297,73.500000C393.200000,73.500000,482.300000,125,530.400000,208.300000C530.300000,298.100000,530.300000,387.900000,530.300000,477.800000Z" fill="url(#eg04olu7tjdh3-fill)" stroke="none" stroke-width="1"/><g id="eg04olu7tjdh4"><path id="eg04olu7tjdh5" d="M529.500000,134.200000C524.800000,132.800000,520.600000,130.300000,517,127L297.100000,0L0.100000,171.500000L0.100000,514.500000L297.100000,686L594.100000,514.500000L594.100000,171.500000L529.500000,134.200000ZM542.800000,484.900000L297.100000,626.800000L51.300000,484.900000L51.300000,201.100000L297.100000,59.100000L542.800000,201.100000L542.800000,484.900000Z" fill="rgb(250,219,165)" stroke="none" stroke-width="1"/><path id="eg04olu7tjdh6" d="M529.500000,134.200000C524.800000,132.800000,520.600000,130.300000,517,127L297.100000,0L0.100000,171.500000L0.100000,514.500000L297.100000,686L594.100000,514.500000L594.100000,171.500000L529.500000,134.200000ZM542.800000,484.900000L297.100000,626.800000L51.300000,484.900000L51.300000,201.100000L297.100000,59.100000L542.800000,201.100000L542.800000,484.900000Z" fill="rgb(10,10,10)" stroke="none" stroke-width="1"/><path id="eg04olu7tjdh7" d="M297,59.100000L51.200000,201.100000L51.200000,484.900000L297,626.800000L542.700000,484.900000L542.700000,201.100000L297,59.100000ZM530.300000,477.800000L297,612.500000L63.600000,477.800000L63.600000,208.300000L297,73.500000L530.400000,208.300000L530.400000,477.800000Z" fill="rgb(55,55,55)" stroke="none" stroke-width="1"/><path id="eg04olu7tjdh8" d="M297,61.300000L53,202.100000L53,483.800000L297,624.700000L540.900000,483.800000L540.900000,202.100000L297,61.300000Z" opacity="0.25" fill="none" stroke="rgb(0,0,0)" stroke-width="20" stroke-miterlimit="10"/></g></g><g id="eg04olu7tjdh9_to" transform="translate(255.290998,343)"><g id="eg04olu7tjdh9_ts" transform="scale(-1,1)"><path id="eg04olu7tjdh9" d="M443.900000,483.100000C443.500000,476.700000,440.200000,472,435.600000,468.100000C432.900000,465.900000,429.700000,464.700000,426.400000,463.600000C425.200000,463.400000,424,463.200000,422.800000,463.100000C419.200000,462.700000,415.800000,463,412.500000,464.500000C409.200000,466,406.600000,468.400000,405.100000,471.800000C403.400000,476.800000,403.700000,481.800000,405.900000,486.600000C407.600000,488.900000,409.300000,491.300000,411.100000,493.600000C411.800000,494.500000,412.900000,495.200000,413.800000,496C414,496.200000,414.200000,496.300000,414.600000,496.600000C414.200000,496.900000,413.800000,497.200000,413.500000,497.500000L413.500000,497.500000C413.300000,497.700000,413.100000,497.900000,412.900000,498C412.900000,498,412.900000,498,412.900000,498C412.800000,498.100000,412.700000,498.200000,412.600000,498.300000C412.500000,498.500000,412.400000,498.700000,412.300000,498.800000C410.300000,501.400000,408.200000,503.600000,404.700000,504C403.900000,504.200000,403,504.600000,402.300000,504.500000C400.400000,504.200000,398.400000,503.800000,396.600000,503.200000C392.600000,502,389.400000,499.500000,386.500000,496.700000C384.400000,494.500000,382.100000,492.500000,380.200000,490.200000C375.700000,484.600000,372.300000,478.300000,369.400000,471.700000C368.300000,469.200000,367.600000,466.700000,366.600000,464.100000C366.100000,462.400000,365.500000,460.800000,365,459.100000C362.600000,450.900000,360.700000,442.500000,359.400000,434C358.500000,428,357.600000,421.900000,356.900000,415.900000C356.200000,410,355.500000,404.100000,354.900000,398.200000C354.100000,390.600000,353.300000,383.100000,352.600000,375.500000C351.900000,368.700000,351.300000,361.900000,350.700000,355.100000C350.300000,350.600000,349.900000,346.100000,349.500000,341.600000C349.400000,340.600000,349.800000,340,350.700000,339.700000C353.400000,338.700000,356.100000,337.500000,358.800000,336.500000C359.900000,336.100000,360.300000,335.500000,360.200000,334.400000C359.800000,332.200000,359.500000,329.900000,359.100000,327.700000C358.800000,325.900000,358.700000,325.900000,357,326.400000C354.400000,327.200000,351.800000,328.100000,349,329.100000C348.700000,327.500000,348.500000,325.900000,348.200000,324.300000C347.200000,318,346.300000,311.700000,345.300000,305.400000C344.700000,301.700000,344,298,343.300000,294.300000C343.300000,294.200000,343.300000,294.200000,343.300000,294.100000C343.200000,293.900000,343.200000,293.700000,343.100000,293.500000C343.100000,293.200000,343,293,343,292.700000C342.900000,292.500000,342.900000,292.300000,342.800000,292.100000C342.900000,291.800000,342.900000,291.400000,343,291.100000C342.800000,290.800000,342.700000,290.500000,342.500000,290.200000C340.700000,280.800000,339,271.300000,337,262C334.400000,250.100000,330.800000,238.500000,326,227.300000C324,222.700000,321.600000,218.300000,319.400000,213.800000C317,209.400000,313.600000,204.100000,309,198.600000C304.400000,193.200000,299.900000,189,296,185.800000C289.800000,180.800000,283,177,275.300000,174.700000C274.100000,174.400000,272.800000,174.100000,271.600000,173.800000C266.700000,172.800000,261.700000,172.400000,256.800000,173.200000C253.600000,173.700000,250.500000,174.800000,247.400000,175.600000C247.300000,175.700000,247.100000,175.800000,247,175.900000C242,178,237.700000,181,234.100000,185C231.600000,187.700000,229.600000,190.700000,228.100000,194.100000C228,194.200000,228,194.300000,227.900000,194.500000C227.900000,194.600000,227.900000,194.600000,227.900000,194.700000C227.200000,197.900000,226.600000,201.100000,227,204.400000C227.100000,205.200000,227.200000,206.100000,227.300000,206.900000C227.900000,208,228.400000,209.100000,229,210.200000C232.700000,216.900000,238.500000,220.900000,245.900000,222.600000C246.300000,222.700000,246.800000,222.900000,247.200000,223C249.500000,222.900000,251.700000,222.900000,254,222.600000C260,222,265.100000,217.900000,266.600000,211.900000C267.700000,207.500000,266.800000,203,264.900000,198.800000C263.500000,195.600000,261.100000,193.300000,258.700000,191C258.100000,190.400000,257.500000,189.900000,257,189.300000C259.700000,185.100000,262.600000,182.700000,265.800000,181.800000C270.200000,180.600000,273.900000,182.300000,276.600000,183.500000C281.700000,185.700000,285.700000,189.900000,287.600000,191.900000C287.800000,192.100000,288,192.300000,288.100000,192.500000L288.100000,192.500000L288.900000,193.400000L288.900000,193.400000C288.900000,193.400000,288.900000,193.400000,288.900000,193.400000C288.900000,193.500000,289.900000,194.600000,290.700000,195.800000C297,204.100000,301.200000,213.200000,301.200000,213.200000C301.700000,214.400000,303.300000,217.600000,304.800000,222.100000C306.900000,228,308.200000,233.700000,309.400000,240.200000C311.100000,249.100000,312.400000,258.100000,313.700000,267.100000C314.400000,271.800000,314.900000,276.500000,315.400000,281.200000C315.700000,283.800000,316.100000,286.500000,316.400000,289.100000C317.500000,299.200000,318.500000,309.300000,319.500000,319.500000C320.100000,325.800000,320.700000,332.200000,321.300000,338.500000C321.300000,338.900000,321,339.600000,320.700000,339.800000C318.900000,340.700000,317,341.400000,315.100000,342.100000L315.100000,342.100000C315,342.100000,315,342.200000,314.900000,342.200000C313.300000,342.900000,311.700000,343.600000,310.100000,344.300000C309.400000,344.600000,309.200000,344.900000,309.400000,345.700000C309.900000,348,310.400000,350.300000,310.800000,352.600000C310.900000,353.100000,311,353.600000,311.200000,354.300000C313.400000,353.500000,315.500000,352.800000,317.600000,352.100000C317.700000,352,317.800000,352,317.900000,351.900000C318.200000,351.900000,318.400000,351.800000,318.700000,351.800000C319.500000,351.500000,320.300000,351.100000,321,350.800000C321.600000,350.500000,321.900000,350.800000,322,351.400000C322.500000,355.500000,323.100000,359.500000,323.600000,363.600000C324.300000,368.400000,324.900000,373.300000,325.700000,378.100000C326.600000,383.600000,327.600000,389.100000,328.500000,394.500000C330.300000,405.600000,332.300000,416.700000,335.100000,427.600000C336,431.300000,336.800000,435,337.900000,438.600000C339.300000,443,340.900000,447.400000,342.400000,451.800000C342.700000,452.400000,343,452.900000,343.200000,453.500000C346.400000,461.500000,350.100000,469.300000,354.700000,476.600000C359.100000,483.500000,364.200000,489.900000,370.200000,495.500000C375,499.900000,380.300000,503.500000,386,506.700000C388.300000,507.700000,390.500000,508.900000,392.800000,509.500000C396.800000,510.600000,400.900000,511.400000,405,512.400000C408.200000,512.300000,411.400000,512.400000,414.600000,511.900000C418.200000,511.300000,421.600000,510.100000,425.100000,509.100000C425.400000,508.900000,425.600000,508.700000,425.900000,508.600000C431,506.200000,435.200000,502.700000,438.700000,498.400000C442.100000,494.300000,444.300000,489.200000,443.900000,483.100000Z" transform="translate(-335.409208,-342.587211)" fill="rgb(176,26,39)" fill-opacity="0" stroke="none" stroke-width="1"/></g></g><path id="eg04olu7tjdh10" display="none" d="M443.900000,483.100000C443.500000,476.700000,440.200000,472,435.600000,468.100000C432.900000,465.900000,429.700000,464.700000,426.400000,463.600000C425.200000,463.400000,424,463.200000,422.800000,463.100000C419.200000,462.700000,415.800000,463,412.500000,464.500000C409.200000,466,406.600000,468.400000,405.100000,471.800000C403.400000,476.800000,403.700000,481.800000,405.900000,486.600000C407.600000,488.900000,409.300000,491.300000,411.100000,493.600000C411.800000,494.500000,412.900000,495.200000,413.800000,496C414,496.200000,414.200000,496.300000,414.600000,496.600000C414.200000,496.900000,413.800000,497.200000,413.500000,497.500000L413.500000,497.500000C413.300000,497.700000,413.100000,497.900000,412.900000,498C412.900000,498,412.900000,498,412.900000,498C412.800000,498.100000,412.700000,498.200000,412.600000,498.300000C412.500000,498.500000,412.400000,498.700000,412.300000,498.800000C410.300000,501.400000,408.200000,503.600000,404.700000,504C403.900000,504.200000,403,504.600000,402.300000,504.500000C400.400000,504.200000,398.400000,503.800000,396.600000,503.200000C392.600000,502,389.400000,499.500000,386.500000,496.700000C384.400000,494.500000,382.100000,492.500000,380.200000,490.200000C375.700000,484.600000,372.300000,478.300000,369.400000,471.700000C368.300000,469.200000,367.600000,466.700000,366.600000,464.100000C366.100000,462.400000,365.500000,460.800000,365,459.100000C362.600000,450.900000,360.700000,442.500000,359.400000,434C358.500000,428,357.600000,421.900000,356.900000,415.900000C356.200000,410,355.500000,404.100000,354.900000,398.200000C354.100000,390.600000,353.300000,383.100000,352.600000,375.500000C351.900000,368.700000,351.300000,361.900000,350.700000,355.100000C350.300000,350.600000,349.900000,346.100000,349.500000,341.600000C349.400000,340.600000,349.800000,340,350.700000,339.700000C353.400000,338.700000,356.100000,337.500000,358.800000,336.500000C359.900000,336.100000,360.300000,335.500000,360.200000,334.400000C359.800000,332.200000,359.500000,329.900000,359.100000,327.700000C358.800000,325.900000,358.700000,325.900000,357,326.400000C354.400000,327.200000,351.800000,328.100000,349,329.100000C348.700000,327.500000,348.500000,325.900000,348.200000,324.300000C347.200000,318,346.300000,311.700000,345.300000,305.400000C344.700000,301.700000,344,298,343.300000,294.300000C343.300000,294.200000,343.300000,294.200000,343.300000,294.100000C343.200000,293.900000,343.200000,293.700000,343.100000,293.500000C343.100000,293.200000,343,293,343,292.700000C342.900000,292.500000,342.900000,292.300000,342.800000,292.100000C342.900000,291.800000,342.900000,291.400000,343,291.100000C342.800000,290.800000,342.700000,290.500000,342.500000,290.200000C340.700000,280.800000,339,271.300000,337,262C334.400000,250.100000,330.800000,238.500000,326,227.300000C324,222.700000,321.600000,218.300000,319.400000,213.800000C317,209.400000,313.600000,204.100000,309,198.600000C304.400000,193.200000,299.900000,189,296,185.800000C289.800000,180.800000,283,177,275.300000,174.700000C274.100000,174.400000,272.800000,174.100000,271.600000,173.800000C266.700000,172.800000,261.700000,172.400000,256.800000,173.200000C253.600000,173.700000,250.500000,174.800000,247.400000,175.600000C247.300000,175.700000,247.100000,175.800000,247,175.900000C242,178,237.700000,181,234.100000,185C231.600000,187.700000,229.600000,190.700000,228.100000,194.100000C228,194.200000,228,194.300000,227.900000,194.500000C227.900000,194.600000,227.900000,194.600000,227.900000,194.700000C227.200000,197.900000,226.600000,201.100000,227,204.400000C227.100000,205.200000,227.200000,206.100000,227.300000,206.900000C227.900000,208,228.400000,209.100000,229,210.200000C232.700000,216.900000,238.500000,220.900000,245.900000,222.600000C246.300000,222.700000,246.800000,222.900000,247.200000,223C249.500000,222.900000,251.700000,222.900000,254,222.600000C260,222,265.100000,217.900000,266.600000,211.900000C267.700000,207.500000,266.800000,203,264.900000,198.800000C263.500000,195.600000,261.100000,193.300000,258.700000,191C258.100000,190.400000,257.500000,189.900000,257,189.300000C259.700000,185.100000,262.600000,182.700000,265.800000,181.800000C270.200000,180.600000,273.900000,182.300000,276.600000,183.500000C281.700000,185.700000,285.700000,189.900000,287.600000,191.900000C287.800000,192.100000,288,192.300000,288.100000,192.500000L288.100000,192.500000L288.900000,193.400000L288.900000,193.400000C288.900000,193.400000,288.900000,193.400000,288.900000,193.400000C288.900000,193.500000,289.900000,194.600000,290.700000,195.800000C297,204.100000,301.200000,213.200000,301.200000,213.200000C301.700000,214.400000,303.300000,217.600000,304.800000,222.100000C306.900000,228,308.200000,233.700000,309.400000,240.200000C311.100000,249.100000,312.400000,258.100000,313.700000,267.100000C314.400000,271.800000,314.900000,276.500000,315.400000,281.200000C315.700000,283.800000,316.100000,286.500000,316.400000,289.100000C317.500000,299.200000,318.500000,309.300000,319.500000,319.500000C320.100000,325.800000,320.700000,332.200000,321.300000,338.500000C321.300000,338.900000,321,339.600000,320.700000,339.800000C318.900000,340.700000,317,341.400000,315.100000,342.100000L315.100000,342.100000C315,342.100000,315,342.200000,314.900000,342.200000C313.300000,342.900000,311.700000,343.600000,310.100000,344.300000C309.400000,344.600000,309.200000,344.900000,309.400000,345.700000C309.900000,348,310.400000,350.300000,310.800000,352.600000C310.900000,353.100000,311,353.600000,311.200000,354.300000C313.400000,353.500000,315.500000,352.800000,317.600000,352.100000C317.700000,352,317.800000,352,317.900000,351.900000C318.200000,351.900000,318.400000,351.800000,318.700000,351.800000C319.500000,351.500000,320.300000,351.100000,321,350.800000C321.600000,350.500000,321.900000,350.800000,322,351.400000C322.500000,355.500000,323.100000,359.500000,323.600000,363.600000C324.300000,368.400000,324.900000,373.300000,325.700000,378.100000C326.600000,383.600000,327.600000,389.100000,328.500000,394.500000C330.300000,405.600000,332.300000,416.700000,335.100000,427.600000C336,431.300000,336.800000,435,337.900000,438.600000C339.300000,443,340.900000,447.400000,342.400000,451.800000C342.700000,452.400000,343,452.900000,343.200000,453.500000C346.400000,461.500000,350.100000,469.300000,354.700000,476.600000C359.100000,483.500000,364.200000,489.900000,370.200000,495.500000C375,499.900000,380.300000,503.500000,386,506.700000C388.300000,507.700000,390.500000,508.900000,392.800000,509.500000C396.800000,510.600000,400.900000,511.400000,405,512.400000C408.200000,512.300000,411.400000,512.400000,414.600000,511.900000C418.200000,511.300000,421.600000,510.100000,425.100000,509.100000C425.400000,508.900000,425.600000,508.700000,425.900000,508.600000C431,506.200000,435.200000,502.700000,438.700000,498.400000C442.100000,494.300000,444.300000,489.200000,443.900000,483.100000Z" transform="matrix(-1 0 0 1 670.81841667999993 0)" fill="rgb(176,26,39)" stroke="none" stroke-width="1"/><path id="eg04olu7tjdh11" d="M147.800000,483.100000C148.200000,476.700000,151.500000,472,156.100000,468.100000C158.800000,465.900000,162,464.700000,165.300000,463.600000C166.500000,463.400000,167.700000,463.200000,168.900000,463.100000C172.500000,462.700000,175.900000,463,179.200000,464.500000C182.500000,466,185.100000,468.400000,186.600000,471.800000C188.300000,476.800000,188,481.800000,185.800000,486.600000C184.100000,488.900000,182.400000,491.300000,180.600000,493.600000C179.900000,494.500000,178.800000,495.200000,177.900000,496C177.700000,496.200000,177.500000,496.300000,177.100000,496.600000C177.500000,496.900000,177.900000,497.200000,178.200000,497.500000L178.200000,497.500000C178.400000,497.700000,178.600000,497.900000,178.800000,498C178.800000,498,178.800000,498,178.800000,498C178.900000,498.100000,179,498.200000,179.100000,498.300000C179.200000,498.500000,179.300000,498.700000,179.400000,498.800000C181.400000,501.400000,183.500000,503.600000,187,504C187.800000,504.200000,188.700000,504.600000,189.400000,504.500000C191.300000,504.200000,193.300000,503.800000,195.100000,503.200000C199.100000,502,202.300000,499.500000,205.200000,496.700000C207.300000,494.500000,209.600000,492.500000,211.500000,490.200000C216,484.600000,219.400000,478.300000,222.300000,471.700000C223.400000,469.200000,224.100000,466.700000,225.100000,464.100000C225.600000,462.400000,226.200000,460.800000,226.700000,459.100000C229.100000,450.900000,231,442.500000,232.300000,434C233.200000,428,234.100000,421.900000,234.800000,415.900000C235.500000,410,236.200000,404.100000,236.800000,398.200000C237.600000,390.600000,238.400000,383.100000,239.100000,375.500000C239.800000,368.700000,240.400000,361.900000,241,355.100000C241.400000,350.600000,241.800000,346.100000,242.200000,341.600000C242.300000,340.600000,241.900000,340,241,339.700000C238.300000,338.700000,235.600000,337.500000,232.900000,336.500000C231.800000,336.100000,231.400000,335.500000,231.500000,334.400000C231.900000,332.200000,232.200000,329.900000,232.600000,327.700000C232.900000,325.900000,233,325.900000,234.700000,326.400000C237.300000,327.200000,239.900000,328.100000,242.700000,329.100000C243,327.500000,243.200000,325.900000,243.500000,324.300000C244.500000,318,245.400000,311.700000,246.400000,305.400000C247,301.700000,247.700000,298,248.400000,294.300000C248.400000,294.200000,248.400000,294.200000,248.400000,294.100000C248.500000,293.900000,248.500000,293.700000,248.600000,293.500000C248.600000,293.200000,248.700000,293,248.700000,292.700000C248.800000,292.500000,248.800000,292.300000,248.900000,292.100000C248.800000,291.800000,248.800000,291.400000,248.700000,291.100000C248.900000,290.800000,249,290.500000,249.200000,290.200000C251,280.800000,252.700000,271.300000,254.700000,262C257.300000,250.100000,260.900000,238.500000,265.700000,227.300000C267.700000,222.700000,270.100000,218.300000,272.300000,213.800000C274.700000,209.400000,278.100000,204.100000,282.700000,198.600000C287.300000,193.200000,291.800000,189,295.700000,185.800000C301.900000,180.800000,308.700000,177,316.400000,174.700000C317.600000,174.400000,318.900000,174.100000,320.100000,173.800000C325,172.800000,330,172.400000,334.900000,173.200000C338.100000,173.700000,341.200000,174.800000,344.300000,175.600000C344.400000,175.700000,344.600000,175.800000,344.700000,175.900000C349.700000,178,354,181,357.600000,185C360.100000,187.700000,362.100000,190.700000,363.600000,194.100000C363.700000,194.200000,363.700000,194.300000,363.800000,194.500000C363.800000,194.600000,363.800000,194.600000,363.800000,194.700000C364.500000,197.900000,365.100000,201.100000,364.700000,204.400000C364.600000,205.200000,364.500000,206.100000,364.400000,206.900000C363.800000,208,363.300000,209.100000,362.700000,210.200000C359,216.900000,353.200000,220.900000,345.800000,222.600000C345.400000,222.700000,344.900000,222.900000,344.500000,223C342.200000,222.900000,340,222.900000,337.700000,222.600000C331.700000,222,326.600000,217.900000,325.100000,211.900000C324,207.500000,324.900000,203,326.800000,198.800000C328.200000,195.600000,330.600000,193.300000,333,191C333.600000,190.400000,334.200000,189.900000,334.700000,189.300000C332,185.100000,329.100000,182.700000,325.900000,181.800000C321.500000,180.600000,317.800000,182.300000,315.100000,183.500000C310,185.700000,306,189.900000,304.100000,191.900000C303.900000,192.100000,303.700000,192.300000,303.600000,192.500000L303.600000,192.500000L302.800000,193.400000L302.800000,193.400000C302.800000,193.400000,302.800000,193.400000,302.800000,193.400000C302.800000,193.500000,301.800000,194.600000,301,195.800000C294.700000,204.100000,290.500000,213.200000,290.500000,213.200000C290,214.400000,288.400000,217.600000,286.900000,222.100000C284.800000,228,283.500000,233.700000,282.300000,240.200000C280.600000,249.100000,279.300000,258.100000,278,267.100000C277.300000,271.800000,276.800000,276.500000,276.300000,281.200000C276,283.800000,275.600000,286.500000,275.300000,289.100000C274.200000,299.200000,273.200000,309.300000,272.200000,319.500000C271.600000,325.800000,271,332.200000,270.400000,338.500000C270.400000,338.900000,270.700000,339.600000,271,339.800000C272.800000,340.700000,274.700000,341.400000,276.600000,342.100000L276.600000,342.100000C276.700000,342.100000,276.700000,342.200000,276.800000,342.200000C278.400000,342.900000,280,343.600000,281.600000,344.300000C282.300000,344.600000,282.500000,344.900000,282.300000,345.700000C281.800000,348,281.300000,350.300000,280.900000,352.600000C280.800000,353.100000,280.700000,353.600000,280.500000,354.300000C278.300000,353.500000,276.200000,352.800000,274.100000,352.100000C274,352,273.900000,352,273.800000,351.900000C273.500000,351.900000,273.300000,351.800000,273,351.800000C272.200000,351.500000,271.400000,351.100000,270.700000,350.800000C270.100000,350.500000,269.800000,350.800000,269.700000,351.400000C269.200000,355.500000,268.600000,359.500000,268.100000,363.600000C267.400000,368.400000,266.800000,373.300000,266,378.100000C265.100000,383.600000,264.100000,389.100000,263.200000,394.500000C261.400000,405.600000,259.400000,416.700000,256.600000,427.600000C255.700000,431.300000,254.900000,435,253.800000,438.600000C252.400000,443,250.800000,447.400000,249.300000,451.800000C249,452.400000,248.700000,452.900000,248.500000,453.500000C245.300000,461.500000,241.600000,469.300000,237,476.600000C232.600000,483.500000,227.500000,489.900000,221.500000,495.500000C216.700000,499.900000,211.400000,503.500000,205.700000,506.700000C203.400000,507.700000,201.200000,508.900000,198.900000,509.500000C194.900000,510.600000,190.800000,511.400000,186.700000,512.400000C183.500000,512.300000,180.300000,512.400000,177.100000,511.900000C173.500000,511.300000,170.100000,510.100000,166.600000,509.100000C166.300000,508.900000,166.100000,508.700000,165.800000,508.600000C160.700000,506.200000,156.500000,502.700000,153,498.400000C149.600000,494.300000,147.400000,489.200000,147.800000,483.100000Z" fill="rgb(176,26,39)" fill-opacity="0" stroke="none" stroke-width="1"/><g id="eg04olu7tjdh12"><path id="eg04olu7tjdh13" d="M344,610.200000L346.800000,618.400000L344.300000,619.800000L341.800000,615.500000C341.600000,615.100000,341.300000,614.900000,341,615.100000L332.400000,620L336.800000,632.600000L342.800000,629.200000C343.200000,629,343.300000,628.200000,343,626.900000C342.800000,626,342.600000,625.200000,342.300000,624.300000L344.600000,623L348.400000,634.400000L346.100000,635.700000C345.600000,634.800000,345.200000,633.800000,344.700000,632.900000C344.300000,632.100000,343.900000,631.800000,343.600000,632L337.600000,635.500000L341.900000,647.900000C342,648.200000,342.200000,648.300000,342.600000,648.200000L346,646.500000L347.200000,648.700000L335.700000,655.300000L334.500000,653.200000L337.300000,651.300000C337.600000,651.100000,337.700000,650.800000,337.600000,650.500000L328.300000,623.400000C328.200000,623,327.800000,622.800000,327.300000,623.100000L324.500000,624.400000L323.300000,622.300000L344,610.200000Z" fill="rgb(255,255,255)" stroke="none" stroke-width="1"/><path id="eg04olu7tjdh14" d="M372.100000,617C374.200000,620.700000,374.900000,624.500000,374.200000,628.400000C373.500000,632.300000,371.500000,635.200000,368.300000,637C366,638.300000,363.700000,638.600000,361.400000,637.900000C359.100000,637.200000,357.200000,635.500000,355.700000,632.900000C353.500000,629.100000,352.800000,625.300000,353.400000,621.400000C354.100000,617.500000,356,614.600000,359.300000,612.700000C361.500000,611.500000,363.600000,611.100000,365.900000,611.700000C368.300000,612.300000,370.400000,614.100000,372.100000,617ZM367.800000,619.200000C365.300000,614.900000,362.700000,613.500000,360,615.100000C358,616.200000,357,618.300000,357,621.300000C357,624.300000,357.900000,627.300000,359.600000,630.300000C362.100000,634.700000,364.700000,636.100000,367.400000,634.500000C369.500000,633.300000,370.500000,631.100000,370.400000,627.800000C370.400000,624.900000,369.500000,622.100000,367.800000,619.200000Z" fill="rgb(255,255,255)" stroke="none" stroke-width="1"/><path id="eg04olu7tjdh15" d="M404.400000,614.300000C402.300000,616.800000,400.700000,618.400000,399.400000,619.100000C397.500000,620.200000,396.100000,619.800000,395,618L394.600000,617.300000C393,621.300000,391,623.900000,388.700000,625.200000C387.500000,625.900000,386.300000,626.200000,385.100000,625.900000C383.700000,625.700000,382.600000,624.800000,381.700000,623.300000C381.100000,622.300000,379.400000,617,376.500000,607.500000L372.500000,608.900000L371.600000,607.400000L377.900000,601.800000L379.200000,602C379.300000,602.400000,380.100000,605.200000,381.800000,610.400000C383.600000,616.100000,384.800000,619.300000,385.200000,620.100000C386.100000,621.600000,387.300000,621.900000,388.800000,621C390.500000,620,392.100000,617.900000,393.400000,614.700000L387.500000,596.800000L391.500000,594.500000C392.500000,597.700000,393.500000,600.800000,394.500000,604C396.500000,610.300000,397.700000,613.700000,398,614.200000C398.600000,615.300000,399.600000,615.400000,401.100000,614.500000C401.800000,614.100000,402.500000,613.400000,403.400000,612.500000L404.400000,614.300000Z" fill="rgb(255,255,255)" stroke="none" stroke-width="1"/><path id="eg04olu7tjdh16" d="M429.700000,599.700000C427.600000,602.100000,426,603.700000,424.700000,604.400000C422.400000,605.700000,420.800000,605.700000,420,604.200000C419.900000,604,419.800000,603.800000,419.700000,603.600000L414.600000,588.600000C414.500000,588.300000,414.400000,588,414.200000,587.800000C413.500000,586.500000,412.300000,586.300000,410.800000,587.200000C409.100000,588.200000,407.600000,590.600000,406.500000,594.400000L412.400000,611L408.200000,613.400000L401.500000,593.100000L397.600000,594.500000L396.800000,593.100000L402.600000,587.800000L404,587L405.500000,591.400000C407.100000,586.900000,409.200000,584,411.600000,582.600000C414.300000,581.100000,416.300000,581.500000,417.600000,583.800000C417.900000,584.300000,418.200000,585,418.500000,585.700000L423.300000,599.300000C423.800000,600.600000,424.800000,600.800000,426.400000,599.900000C427.100000,599.500000,427.900000,598.800000,428.700000,597.900000L429.700000,599.700000Z" fill="rgb(255,255,255)" stroke="none" stroke-width="1"/><path id="eg04olu7tjdh17" d="M435.500000,553.700000C437.400000,558.900000,439.300000,564.200000,441.200000,569.400000C445,579.800000,447,585.300000,447.300000,585.800000C448,587,448.900000,587.200000,450.100000,586.500000C450,586.600000,450.900000,585.800000,452.900000,584.200000L453.900000,586C451.900000,588.300000,450.200000,589.800000,449,590.600000C446.900000,591.800000,445.200000,591.300000,443.900000,589L443.700000,588.700000C443.500000,590,443.100000,591.400000,442.300000,592.700000C441.500000,594.300000,440.500000,595.500000,439.300000,596.200000C437.100000,597.400000,435,597.500000,433,596.400000C431.300000,595.500000,429.800000,593.900000,428.500000,591.700000C426.300000,587.900000,425.500000,583.900000,426.200000,579.800000C426.900000,575.400000,429,572.200000,432.600000,570.100000C433.800000,569.400000,435.100000,569,436.300000,568.900000L432.900000,559.600000L428.800000,561.400000L427.900000,559.800000L434,554.500000L435.500000,553.700000ZM437.900000,573.200000C437.800000,573,437.300000,572.800000,436.200000,572.500000C435.100000,572.200000,434.300000,572.200000,433.800000,572.400000C431.500000,573.700000,430.200000,576,429.900000,579.200000C429.600000,582.400000,430.400000,585.800000,432.400000,589.200000C434.400000,592.700000,436.700000,593.800000,439.100000,592.500000C440.700000,591.600000,441.900000,589.300000,442.500000,585.700000L437.900000,573.200000Z" fill="rgb(255,255,255)" stroke="none" stroke-width="1"/><path id="eg04olu7tjdh18" d="M476.800000,572.500000C474.800000,575,473.300000,576.600000,472.100000,577.300000C470.200000,578.400000,468.600000,577.800000,467.300000,575.600000C466.500000,579.100000,465,581.400000,462.800000,582.700000C460.600000,584,458.400000,584,456.200000,582.800000C454.500000,581.900000,453.100000,580.400000,451.900000,578.300000C449.700000,574.500000,449,570.700000,449.600000,566.600000C450.300000,562.300000,452.600000,559,456.400000,556.800000C457.800000,556,459.400000,555.500000,461,555.400000L461.300000,554L464,552.500000C464.100000,553.300000,464.300000,554.400000,464.600000,555.700000C465.200000,557.800000,466.100000,560.600000,467.300000,564.200000C468.700000,568.600000,469.700000,571.200000,470.200000,572.100000C470.900000,573.400000,472,573.600000,473.400000,572.800000C473.200000,572.900000,474.100000,572.200000,475.900000,570.700000L476.800000,572.500000ZM461.500000,560.200000C461.500000,560.100000,461,559.800000,460,559.300000C459,558.800000,458.500000,558.700000,458.300000,558.800000C455.100000,560.600000,453.500000,563.400000,453.400000,567C453.300000,569.900000,454.200000,572.800000,455.900000,575.800000C457.900000,579.200000,460.100000,580.300000,462.500000,578.900000C464,578,465.200000,576.100000,466,573.200000L461.500000,560.200000Z" fill="rgb(255,255,255)" stroke="none" stroke-width="1"/><path id="eg04olu7tjdh19" d="M483.400000,545.500000L477,549.200000C480.600000,559.400000,482.400000,564.500000,482.300000,564.400000C483.300000,566.100000,484.600000,566.400000,486.200000,565.500000C487.100000,565,488.400000,563.800000,490,562L491.100000,563.800000C488.900000,566.800000,487,568.900000,485.300000,569.800000C482.700000,571.300000,480.600000,570.600000,479,567.700000C478.400000,566.700000,476.500000,561.300000,473.200000,551.400000L470.700000,553.200000L469.700000,551.500000L472.100000,548.100000L471.700000,542.400000L474,541.100000L476,546.700000L482,543.200000L483.400000,545.500000Z" fill="rgb(255,255,255)" stroke="none" stroke-width="1"/><path id="eg04olu7tjdh20" d="M489,528.400000C489.400000,529.100000,489.500000,529.900000,489.300000,530.700000C489.100000,531.500000,488.600000,532.100000,487.900000,532.500000C487.200000,532.900000,486.400000,533,485.700000,532.800000C484.900000,532.600000,484.300000,532.100000,483.900000,531.400000C483.500000,530.700000,483.400000,530,483.600000,529.100000C483.800000,528.300000,484.300000,527.700000,485,527.300000C485.700000,526.900000,486.400000,526.800000,487.200000,527.100000C488,527.200000,488.600000,527.700000,489,528.400000ZM504.900000,556.300000C503,558.800000,501.200000,560.600000,499.600000,561.500000C497.600000,562.700000,495.900000,562.200000,494.700000,560.100000C493.900000,558.700000,491.900000,553,488.600000,543.100000L484.800000,544.500000L483.900000,543L489.600000,537.800000L491,537L498.100000,556.900000C498.700000,557.900000,499.600000,558.100000,500.800000,557.400000C501.600000,557,502.500000,556.100000,503.800000,554.700000L504.900000,556.300000Z" fill="rgb(255,255,255)" stroke="none" stroke-width="1"/><path id="eg04olu7tjdh21" d="M519.900000,532.100000C522,535.800000,522.700000,539.600000,522,543.500000C521.300000,547.400000,519.300000,550.300000,516.100000,552.100000C513.800000,553.400000,511.500000,553.700000,509.200000,553C506.900000,552.300000,505,550.600000,503.500000,548C501.300000,544.200000,500.600000,540.400000,501.300000,536.500000C502,532.600000,503.900000,529.700000,507.200000,527.800000C509.400000,526.600000,511.600000,526.200000,513.800000,526.800000C516.200000,527.400000,518.300000,529.200000,519.900000,532.100000ZM515.700000,534.300000C513.200000,530,510.600000,528.600000,507.900000,530.200000C505.900000,531.300000,504.900000,533.400000,504.900000,536.400000C504.900000,539.400000,505.800000,542.400000,507.500000,545.400000C510,549.800000,512.600000,551.200000,515.300000,549.600000C517.400000,548.400000,518.400000,546.200000,518.300000,542.900000C518.200000,540.100000,517.300000,537.200000,515.700000,534.300000Z" fill="rgb(255,255,255)" stroke="none" stroke-width="1"/><path id="eg04olu7tjdh22" d="M552.600000,529.100000C550.600000,531.500000,548.900000,533.100000,547.600000,533.800000C545.300000,535.100000,543.700000,535.100000,542.900000,533.600000C542.800000,533.400000,542.700000,533.200000,542.600000,533L537.500000,518C537.400000,517.700000,537.300000,517.400000,537.100000,517.200000C536.400000,515.900000,535.200000,515.700000,533.700000,516.600000C532,517.600000,530.500000,520,529.400000,523.800000L535.300000,540.400000L531.100000,542.800000L524.400000,522.500000L520.500000,523.900000L519.700000,522.500000L525.500000,517.200000L526.900000,516.400000L528.400000,520.800000C530,516.300000,532.100000,513.400000,534.500000,512C537.200000,510.500000,539.200000,510.900000,540.500000,513.200000C540.800000,513.700000,541.100000,514.400000,541.400000,515.100000L546.200000,528.700000C546.700000,530,547.700000,530.200000,549.300000,529.300000C550,528.900000,550.800000,528.200000,551.600000,527.300000L552.600000,529.100000Z" fill="rgb(255,255,255)" stroke="none" stroke-width="1"/></g><g id="eg04olu7tjdh23"><path id="eg04olu7tjdh24" d="M107.900000,115.200000L110.500000,123.100000L108.100000,124.500000L105.800000,120.300000C105.600000,119.900000,105.300000,119.800000,105.100000,119.900000L96.800000,124.600000L100.900000,136.800000L106.700000,133.600000C107.100000,133.400000,107.100000,132.700000,106.900000,131.400000C106.700000,130.600000,106.500000,129.700000,106.300000,128.900000L108.600000,127.600000L112.200000,138.600000L110,139.800000C109.600000,138.900000,109.100000,138,108.700000,137.100000C108.300000,136.300000,107.900000,136,107.700000,136.200000L101.900000,139.500000L105.900000,151.400000C106,151.700000,106.200000,151.800000,106.600000,151.700000L109.900000,150.100000L111.100000,152.200000L99.900000,158.500000L98.800000,156.500000L101.600000,154.700000C101.900000,154.500000,102,154.200000,101.900000,153.900000L93.200000,127.700000C93.100000,127.300000,92.800000,127.200000,92.300000,127.400000L89.600000,128.600000L88.500000,126.600000L107.900000,115.200000Z" fill="rgb(255,255,255)" stroke="none" stroke-width="1"/><path id="eg04olu7tjdh25" d="M148.300000,129.600000C146.300000,132,144.700000,133.500000,143.400000,134.200000C141.600000,135.200000,140.200000,134.800000,139.200000,133.100000L138.800000,132.400000C137.200000,136.200000,135.300000,138.700000,133.100000,140C131.900000,140.700000,130.800000,140.900000,129.600000,140.700000C128.300000,140.500000,127.200000,139.700000,126.400000,138.200000C125.800000,137.200000,124.200000,132.100000,121.500000,122.900000L117.700000,124.200000L116.900000,122.800000L123,117.500000L124.300000,117.700000C124.400000,118.100000,125.200000,120.800000,126.700000,125.800000C128.400000,131.300000,129.500000,134.400000,129.900000,135.100000C130.700000,136.600000,131.900000,136.900000,133.300000,136C135,135.100000,136.500000,133.100000,137.800000,130L132.300000,112.700000L136.200000,110.500000C137.200000,113.600000,138.100000,116.600000,139,119.700000C140.900000,125.800000,142,129.100000,142.200000,129.500000C142.800000,130.500000,143.800000,130.600000,145.200000,129.800000C145.800000,129.400000,146.600000,128.800000,147.400000,127.900000L148.300000,129.600000Z" fill="rgb(255,255,255)" stroke="none" stroke-width="1"/><path id="eg04olu7tjdh26" d="M165.500000,98L161.600000,100.200000C162.400000,100.900000,163.100000,101.700000,163.600000,102.600000C164.900000,104.900000,165.200000,107.400000,164.500000,109.900000C163.800000,112.400000,162.200000,114.400000,159.800000,115.700000C159.700000,115.700000,159.600000,115.800000,159.300000,115.900000C159.100000,116,159,116.100000,158.900000,116.100000C159,117.300000,159.300000,118.200000,159.700000,118.600000L166.900000,118C168.800000,117.800000,170.300000,117.900000,171.200000,118.100000C172.500000,118.400000,173.500000,119.200000,174.100000,120.400000C175.100000,122.300000,174.900000,124.500000,173.400000,127.100000C172,129.500000,169.900000,131.500000,167.200000,133C164.600000,134.500000,162.300000,135,160.200000,134.800000C158.100000,134.500000,156.600000,133.500000,155.600000,131.700000C154,128.900000,154.800000,125.800000,157.900000,122.400000C157.900000,122.400000,157.800000,122.300000,157.800000,122.100000C157.700000,122,157.600000,121.900000,157.600000,121.800000C157.300000,121.200000,157,120.400000,156.800000,119.400000C156.600000,118.400000,156.700000,117.500000,156.900000,116.800000C153.700000,117.100000,151.400000,116,150,113.600000C148.700000,111.300000,148.400000,108.900000,149.100000,106.400000C149.700000,103.800000,151.300000,101.900000,153.800000,100.500000C155.300000,99.700000,156.800000,99.300000,158.500000,99.300000L164.300000,96L165.500000,98ZM159.700000,104.400000C158.300000,101.900000,156.700000,101.100000,154.900000,102.100000C153.700000,102.800000,153,104.100000,152.700000,106C152.500000,107.900000,152.900000,109.800000,154,111.800000C155.300000,114.200000,156.900000,114.800000,158.600000,113.900000C160.100000,113.100000,160.800000,111.600000,160.900000,109.500000C161,107.700000,160.500000,106,159.700000,104.400000ZM170.900000,123.300000C170.300000,122.300000,169.100000,121.800000,167.300000,121.900000L160.300000,122.400000C158.100000,124.400000,157.600000,126.500000,158.900000,128.700000C159.500000,129.800000,160.500000,130.500000,161.800000,130.900000C163.400000,131.300000,165.100000,131,167,130C169,128.900000,170.300000,127.600000,170.900000,126.200000C171.400000,125.100000,171.400000,124.100000,170.900000,123.300000Z" fill="rgb(255,255,255)" stroke="none" stroke-width="1"/><path id="eg04olu7tjdh27" d="M201.600000,99.700000C199.600000,102.100000,198,103.600000,196.700000,104.300000C194.900000,105.300000,193.500000,104.900000,192.500000,103.200000L192.100000,102.500000C190.500000,106.300000,188.600000,108.800000,186.400000,110.100000C185.200000,110.800000,184.100000,111,182.900000,110.800000C181.600000,110.600000,180.500000,109.800000,179.700000,108.300000C179.100000,107.300000,177.500000,102.200000,174.800000,93L171,94.300000L170.200000,92.900000L176.300000,87.600000L177.600000,87.800000C177.700000,88.200000,178.500000,90.900000,180.100000,95.900000C181.800000,101.400000,182.900000,104.500000,183.300000,105.200000C184.100000,106.700000,185.300000,107,186.700000,106.100000C188.400000,105.200000,189.900000,103.200000,191.200000,100.100000L185.600000,83L189.500000,80.800000C190.500000,83.900000,191.400000,86.900000,192.300000,90C194.200000,96.100000,195.300000,99.400000,195.500000,99.800000C196.100000,100.800000,197.100000,100.900000,198.500000,100.100000C199.100000,99.700000,199.900000,99.100000,200.700000,98.200000L201.600000,99.700000Z" fill="rgb(255,255,255)" stroke="none" stroke-width="1"/><path id="eg04olu7tjdh28" d="M215.500000,71.500000C216.800000,73.700000,216.400000,76.300000,214.400000,79.100000C212.800000,81.300000,210.700000,83.300000,207.800000,85.100000C208.200000,85.900000,208.500000,86.600000,208.700000,87C209.600000,88.600000,210.700000,89.600000,211.900000,90.200000C213.200000,90.800000,214.500000,90.700000,215.800000,89.900000C217.800000,88.800000,219.400000,86.200000,220.800000,82.200000L222.200000,84.700000C221.100000,88.800000,219,91.700000,216,93.400000C214.400000,94.300000,212.700000,94.600000,211.100000,94.300000C208.700000,93.900000,206.700000,92.200000,205,89.200000C203,85.700000,202.400000,82,203.100000,77.900000C203.800000,73.900000,205.600000,71,208.400000,69.400000C210.100000,68.400000,211.700000,68.300000,213.100000,69C214.100000,69.800000,214.900000,70.500000,215.500000,71.500000ZM212,73.400000C211.700000,72.800000,211.200000,72.400000,210.600000,72.100000C210,71.900000,209.400000,71.900000,208.700000,72.300000C207.300000,73.100000,206.500000,74.700000,206.300000,77.100000C206.100000,79.100000,206.400000,81.100000,207,83.100000C209,81.800000,210.500000,80.300000,211.500000,78.500000C212.600000,76.500000,212.800000,74.800000,212,73.400000Z" fill="rgb(255,255,255)" stroke="none" stroke-width="1"/></g></svg>